<svg width="40" height="40" viewBox="0 0 40 40" fill="none" xmlns="http://www.w3.org/2000/svg">
<g opacity="0.6">
<path d="M36.6666 3.33319H3.33336C1.49328 3.3353 0.0021875 4.82647 0 6.66647V33.3331C0.0021875 35.1732 1.49328 36.6643 3.33336 36.6665H33.7847L33.7871 36.6668L33.7891 36.6665H36.6666C38.5067 36.6643 39.9978 35.1732 40 33.3331V6.66647C39.9978 4.82647 38.5067 3.3353 36.6666 3.33319ZM15.963 32.8157C15.5437 31.4726 15.3313 30.0735 15.3334 28.6665C15.338 28.0475 15.3834 27.4294 15.4692 26.8164C16.1265 26.8695 16.7312 27.1962 17.1361 27.7166C17.3445 28.1355 16.864 29.7248 16.513 30.8849C16.3265 31.5015 16.1316 32.1567 15.963 32.8157ZM17.026 35.3332C16.983 35.253 16.9385 35.1742 16.8976 35.0926C17.0703 33.7928 17.3688 32.5128 17.789 31.2706C18.3391 29.4519 18.774 28.0154 18.3294 27.1215C17.8323 26.1274 16.6553 25.6943 15.6947 25.5026C15.822 24.946 15.9842 24.398 16.1805 23.8618C16.5448 24.0296 16.9413 24.1156 17.3423 24.1137C18.1509 24.084 18.9337 23.8223 19.5975 23.3598C20.1034 23.0252 20.5791 22.6472 21.0194 22.2299L21.2635 22.0083C21.6517 21.6828 22.0032 21.3159 22.3117 20.9142C22.8055 20.1094 22.9047 19.1232 22.5813 18.2362C22.4441 17.7174 22.2659 17.2103 22.0483 16.7198C24.8282 15.0179 28.1162 14.3428 31.3419 14.8116C30.66 15.1619 30.0086 15.5684 29.3945 16.0272C28.8137 16.3565 28.3892 16.9049 28.2161 17.5496C28.1734 17.9288 28.2909 18.3087 28.5403 18.5974C28.7245 18.8103 28.9269 19.0068 29.1452 19.1847C29.3715 19.372 29.5825 19.5772 29.776 19.7983C29.4852 19.8126 29.1937 19.8071 28.9036 19.7817C28.7903 19.7739 28.6966 19.7677 28.6386 19.7667C27.6429 19.7061 26.6436 19.7576 25.6595 19.9201C25.0519 20.0108 24.5063 20.3423 24.1458 20.8397C23.9181 21.2002 23.8496 21.6388 23.9563 22.0515C24.1125 22.7524 24.5834 23.3419 25.2323 23.6492C25.6356 23.7897 26.0681 23.8248 26.4888 23.7514C26.6093 23.7394 26.7271 23.7263 26.8339 23.7263C27.4523 23.8051 28.0386 24.0472 28.5325 24.4275L28.8177 24.6085C29.4101 24.993 30.3059 25.5747 31.2311 25.2293C31.6388 25.052 31.9882 24.7636 32.2395 24.3969C32.3258 24.2823 32.4212 24.1748 32.5247 24.0753C32.7624 23.8719 33.0674 23.7642 33.3802 23.7732C33.4182 23.773 33.4562 23.775 33.4941 23.7791C33.2427 24.5028 32.8501 25.1694 32.3391 25.7403C31.9462 26.2255 31.447 26.6138 30.8802 26.8754C30.4464 27.0735 29.9585 27.1197 29.4954 27.0062C28.8421 26.8092 28.2113 26.5444 27.6132 26.2158C26.2076 25.514 24.6139 24.7181 22.97 25.5426C21.5848 26.2105 20.6687 27.5748 20.5748 29.1097C20.377 30.3935 20.6614 32.872 23.136 33.3665C25.4212 33.825 26.4811 34.235 26.9723 35.333H17.026V35.3332ZM16.71 22.6269C17.6786 20.5952 19.1251 18.8286 20.9256 17.4782C21.0705 17.831 21.1917 18.193 21.2884 18.5619C21.5011 19.0715 21.4784 19.6487 21.2266 20.1401C20.973 20.4611 20.6868 20.7548 20.3724 21.0164L20.1152 21.2501C19.7319 21.6155 19.3171 21.9463 18.8756 22.2387C18.267 22.7286 17.4509 22.8748 16.71 22.6269ZM38.6666 33.3332C38.6655 34.4373 37.7707 35.332 36.6666 35.3332H34.6896C34.8263 34.7201 35.1856 34.1796 35.6979 33.8162C36.6595 33.3351 37.235 31.6316 36.817 30.5018C36.6687 30.0976 36.3656 29.7689 35.9747 29.5883C35.5838 29.4078 35.137 29.3901 34.733 29.5393C34.5918 29.5748 34.2545 29.6408 34.2005 29.4944C34.1227 29.0143 34.3187 28.5308 34.7089 28.2405C34.758 28.2198 34.8094 28.2051 34.8619 28.1965C36.2087 28.0312 37.5682 28.3825 38.6666 29.1794V33.3332H38.6666ZM38.6666 27.6004C37.4096 26.9458 35.9799 26.6989 34.5762 26.894C34.4089 26.9251 34.2469 26.9799 34.0951 27.0567C33.113 27.6623 32.647 28.8422 32.9499 29.9555C33.0606 30.2565 33.5423 31.2071 35.0548 30.833C35.4805 30.7269 35.5274 30.8587 35.5665 30.9642C35.7081 31.5605 35.5324 32.1877 35.1016 32.6237C34.1312 33.1092 33.6262 34.2155 33.2847 35.3331H28.3855C27.7081 33.1016 25.8055 32.5423 23.3979 32.0594C21.5665 31.6931 21.8588 29.5265 21.8979 29.283C21.9038 29.2465 21.9069 29.2098 21.907 29.173C21.9769 28.1197 22.6117 27.1869 23.5659 26.7355C24.6166 26.2107 25.7293 26.7654 27.0177 27.409C27.7023 27.7823 28.4249 28.0811 29.1733 28.3002C29.9195 28.4825 30.705 28.4122 31.407 28.1004C32.1782 27.7522 32.8562 27.2266 33.3855 26.5665C33.9487 25.8901 35.2059 24.2036 34.7117 23.1499C34.4577 22.6605 33.9283 22.3781 33.3803 22.4399C32.7447 22.4308 32.1279 22.6557 31.6473 23.0717C31.4837 23.222 31.3338 23.3865 31.1994 23.5633C31.0197 23.7876 30.9025 23.9279 30.7619 23.9815C30.467 24.0893 29.9338 23.7436 29.5431 23.49L29.2352 23.2941C28.5377 22.774 27.7073 22.4616 26.84 22.393C26.6844 22.393 26.5216 22.408 26.3562 22.4246C26.1534 22.4628 25.9449 22.4604 25.743 22.4174C25.4945 22.2731 25.3177 22.0315 25.2553 21.7511C25.2298 21.6869 25.2356 21.6145 25.2709 21.5551C25.4426 21.3711 25.6745 21.2546 25.9246 21.2267C26.8114 21.0848 27.7113 21.0422 28.6076 21.0998C28.6558 21.1005 28.7261 21.1059 28.8107 21.1118C29.56 21.1651 31.1154 21.2733 31.2052 20.0831C31.2515 19.2505 30.5691 18.6563 30.0203 18.1791C29.8636 18.0505 29.7161 17.9108 29.5789 17.7615C29.5548 17.7312 29.5444 17.7116 29.5412 17.7101C29.5828 17.5515 30.0105 17.2316 30.2398 17.06C31.2423 16.3158 32.3516 15.7276 33.53 15.3152C35.4306 15.9115 37.182 16.9069 38.6669 18.2348V27.6004H38.6666ZM38.6666 9.99983H36C35.6318 9.99983 35.3334 10.2983 35.3334 10.6665C35.3334 11.0347 35.6319 11.3331 36 11.3331H38.6666V16.5057C34.9011 13.6133 30.0079 12.6292 25.417 13.8408C20.826 15.0523 17.0556 18.323 15.2077 22.6967C14.7645 23.736 14.441 24.8223 14.2434 25.9347C14.0813 26.8362 13.9998 27.7505 13.9999 28.6665C13.9934 30.9768 14.518 33.2577 15.5329 35.3331H3.33336C2.2293 35.3319 1.33453 34.4372 1.33336 33.3331V11.3331H32C32.3682 11.3331 32.6666 11.0347 32.6666 10.6665C32.6666 10.2983 32.3682 9.99983 32 9.99983H1.33336V6.66647C1.33453 5.56241 2.2293 4.66764 3.33336 4.66647H36.6667C37.7708 4.66764 38.6655 5.56241 38.6667 6.66647V9.99983H38.6666Z" fill="#403E55"/>
<path d="M4.66666 6.6665H4.00001C3.63181 6.6665 3.33337 6.96494 3.33337 7.33314C3.33337 7.70135 3.63181 7.99979 4.00001 7.99979H4.66666C5.03486 7.99979 5.3333 7.70135 5.3333 7.33314C5.3333 6.96494 5.03486 6.6665 4.66666 6.6665Z" fill="#403E55"/>
<path d="M8 6.6665H7.33336C6.96515 6.6665 6.66672 6.96494 6.66672 7.33314C6.66672 7.70135 6.96523 7.99979 7.33336 7.99979H8C8.3682 7.99979 8.66664 7.70135 8.66664 7.33314C8.66664 6.96494 8.3682 6.6665 8 6.6665Z" fill="#403E55"/>
</g>
</svg>
