<svg width="40" height="40" viewBox="0 0 40 40" fill="none" xmlns="http://www.w3.org/2000/svg">
<g opacity="0.6">
<path d="M31.7188 15.3912V11.7188C31.7188 5.25696 26.4618 0 20 0C13.5382 0 8.28125 5.25696 8.28125 11.7188V15.3912C6.50024 15.7541 5.15625 17.3325 5.15625 19.2188V23.6539C5.15625 24.0854 5.50598 24.4351 5.9375 24.4351C6.36902 24.4351 6.71875 24.0854 6.71875 23.6539V19.2188C6.71875 17.9263 7.77008 16.875 9.0625 16.875H30.9375C32.2299 16.875 33.2812 17.9263 33.2812 19.2188V36.0938C33.2812 37.1121 32.6282 37.9807 31.7188 38.3032V33.5938C31.7188 33.1622 31.369 32.8125 30.9375 32.8125C30.506 32.8125 30.1562 33.1622 30.1562 33.5938V38.4375H9.0625C7.77008 38.4375 6.71875 37.3862 6.71875 36.0938V29.9219C6.71875 29.4904 6.36902 29.1406 5.9375 29.1406C5.50598 29.1406 5.15625 29.4904 5.15625 29.9219V36.0938C5.15625 38.2477 6.90857 40 9.0625 40H30.9375C33.0914 40 34.8438 38.2477 34.8438 36.0938V19.2188C34.8438 17.3325 33.4998 15.7541 31.7188 15.3912ZM14.0625 15.3125V11.7188C14.0625 8.44482 16.7261 5.78125 20 5.78125C23.2739 5.78125 25.9375 8.44482 25.9375 11.7188V15.3125H14.0625ZM27.5 15.3125V11.7188C27.5 7.58331 24.1354 4.21875 20 4.21875C15.8646 4.21875 12.5 7.58331 12.5 11.7188V15.3125H9.84375V11.7188C9.84375 6.11847 14.3997 1.5625 20 1.5625C25.6003 1.5625 30.1562 6.11847 30.1562 11.7188V15.3125H27.5Z" fill="#403E55"/>
<path d="M5.9375 27.5381C6.14288 27.5381 6.3446 27.4548 6.48987 27.3093C6.63513 27.164 6.71875 26.9626 6.71875 26.7569C6.71875 26.5515 6.63513 26.3498 6.48987 26.2048C6.3446 26.0593 6.14288 25.9756 5.9375 25.9756C5.73212 25.9756 5.5304 26.0593 5.38513 26.2048C5.23987 26.3498 5.15625 26.5515 5.15625 26.7569C5.15625 26.9626 5.23987 27.164 5.38513 27.3093C5.5304 27.4548 5.73212 27.5381 5.9375 27.5381Z" fill="#403E55"/>
<path d="M20 35.7812C21.2924 35.7812 22.3438 34.7299 22.3438 33.4375V29.2889C23.5175 28.512 24.2288 27.2058 24.2288 25.7745C24.2288 23.4485 22.3361 21.5558 20.0101 21.5558C17.6837 21.5558 15.7913 23.4485 15.7913 25.7745C15.7913 27.1954 16.4948 28.4967 17.6562 29.2755V33.4375C17.6562 34.7299 18.7076 35.7812 20 35.7812ZM17.3538 25.7745C17.3538 24.3097 18.5452 23.1183 20.0101 23.1183C21.4746 23.1183 22.6663 24.3097 22.6663 25.7745C22.6663 26.7804 22.1078 27.6883 21.2091 28.1445C20.9467 28.2776 20.7812 28.5468 20.7812 28.8412V33.4375C20.7812 33.8684 20.4309 34.2188 20 34.2188C19.5691 34.2188 19.2188 33.8684 19.2188 33.4375V28.8309C19.2188 28.5385 19.0555 28.2706 18.7955 28.1366C17.9062 27.6782 17.3538 26.7731 17.3538 25.7745Z" fill="#403E55"/>
<path d="M30.9375 31.1719C31.1438 31.1719 31.3446 31.0883 31.4899 30.943C31.6351 30.7977 31.7188 30.5969 31.7188 30.3906C31.7188 30.1843 31.6351 29.9835 31.4899 29.8383C31.3446 29.693 31.1438 29.6094 30.9375 29.6094C30.7321 29.6094 30.5304 29.693 30.3851 29.8383C30.2399 29.9835 30.1562 30.1852 30.1562 30.3906C30.1562 30.596 30.2399 30.7977 30.3851 30.943C30.5304 31.0883 30.7321 31.1719 30.9375 31.1719Z" fill="#403E55"/>
</g>
</svg>
