<svg width="40" height="40" viewBox="0 0 40 40" fill="none" xmlns="http://www.w3.org/2000/svg">
<g opacity="0.6">
<g clip-path="url(#clip0)">
<path d="M40 21.3334C39.9965 20.2018 39.278 19.1961 38.2087 18.826C38.7607 18.0088 38.8166 16.9537 38.3541 16.0827C37.8916 15.2117 36.9862 14.6671 36 14.6667H30.6667C29.3665 14.6637 28.2546 15.601 28.0377 16.883C27.8208 18.165 28.5625 19.4159 29.7913 19.8407C29.1807 20.7421 29.1807 21.9246 29.7913 22.826C28.7201 23.1934 28.0005 24.2008 28.0005 25.3334C28.0005 26.4659 28.7201 27.4733 29.7913 27.8407C29.1807 28.7421 29.1807 29.9246 29.7913 30.826C28.7201 31.1934 28.0005 32.2008 28.0005 33.3334C28.0005 34.4659 28.7201 35.4733 29.7913 35.8407C29.2393 36.6579 29.1834 37.713 29.6459 38.584C30.1084 39.455 31.0138 39.9996 32 40H37.3334C38.6336 40.0031 39.7454 39.0657 39.9623 37.7838C40.1792 36.5018 39.4375 35.2509 38.2087 34.826C38.8194 33.9246 38.8194 32.7421 38.2087 31.8407C39.28 31.4733 39.9995 30.4659 39.9995 29.3334C39.9995 28.2008 39.28 27.1934 38.2087 26.826C38.8194 25.9246 38.8194 24.7421 38.2087 23.8407C39.278 23.4706 39.9965 22.4649 40 21.3334ZM29.3333 17.3334C29.3333 16.597 29.9303 16 30.6667 16H36C36.7364 16 37.3334 16.597 37.3334 17.3334C37.3334 18.0697 36.7364 18.6667 36 18.6667H30.6667C29.9303 18.6667 29.3333 18.0697 29.3333 17.3334ZM29.3333 25.3334C29.3333 24.597 29.9303 24 30.6667 24H36C36.7364 24 37.3334 24.597 37.3334 25.3334C37.3334 26.0697 36.7364 26.6667 36 26.6667H30.6667C29.9303 26.6667 29.3333 26.0697 29.3333 25.3334ZM29.3333 33.3334C29.3333 32.597 29.9303 32 30.6667 32H36C36.7364 32 37.3334 32.597 37.3334 33.3334C37.3334 34.0697 36.7364 34.6667 36 34.6667H30.6667C29.9303 34.6667 29.3333 34.0697 29.3333 33.3334ZM38.6667 37.3334C38.6667 38.0697 38.0697 38.6667 37.3334 38.6667H32C31.2636 38.6667 30.6667 38.0697 30.6667 37.3334C30.6667 36.597 31.2636 36 32 36H37.3334C38.0697 36 38.6667 36.597 38.6667 37.3334ZM38.6667 29.3334C38.6667 30.0697 38.0697 30.6667 37.3334 30.6667H32C31.2636 30.6667 30.6667 30.0697 30.6667 29.3334C30.6667 28.597 31.2636 28 32 28H37.3334C38.0697 28 38.6667 28.597 38.6667 29.3334ZM37.3334 22.6667H32C31.2636 22.6667 30.6667 22.0697 30.6667 21.3334C30.6667 20.597 31.2636 20 32 20H37.3334C38.0697 20 38.6667 20.597 38.6667 21.3334C38.6667 22.0697 38.0697 22.6667 37.3334 22.6667Z" fill="#403E55"/>
<path d="M26 29.3334C25.9965 28.2018 25.278 27.1961 24.2087 26.826C24.7607 26.0088 24.8166 24.9537 24.3541 24.0827C23.8916 23.2117 22.9862 22.6671 22 22.6667H16.6667C15.3665 22.6637 14.2546 23.601 14.0377 24.883C13.8208 26.165 14.5625 27.4159 15.7913 27.8407C15.1807 28.7421 15.1807 29.9246 15.7913 30.826C14.7201 31.1934 14.0005 32.2008 14.0005 33.3334C14.0005 34.4659 14.7201 35.4733 15.7913 35.8407C15.2393 36.6579 15.1834 37.713 15.6459 38.584C16.1084 39.455 17.0138 39.9996 18 40H23.3333C24.6335 40.0031 25.7454 39.0657 25.9623 37.7837C26.1792 36.5018 25.4375 35.2508 24.2087 34.826C24.8194 33.9246 24.8194 32.7421 24.2087 31.8407C25.278 31.4706 25.9965 30.4649 26 29.3334ZM15.3333 25.3334C15.3333 24.597 15.9303 24 16.6667 24H22C22.7364 24 23.3333 24.597 23.3333 25.3334C23.3333 26.0697 22.7364 26.6667 22 26.6667H16.6667C15.9303 26.6667 15.3333 26.0697 15.3333 25.3334ZM15.3333 33.3334C15.3333 32.597 15.9303 32 16.6667 32H22C22.7364 32 23.3333 32.597 23.3333 33.3334C23.3333 34.0697 22.7364 34.6667 22 34.6667H16.6667C15.9303 34.6667 15.3333 34.0697 15.3333 33.3334ZM24.6667 37.3334C24.6667 38.0697 24.0697 38.6667 23.3333 38.6667H18C17.2636 38.6667 16.6667 38.0697 16.6667 37.3334C16.6667 36.597 17.2636 36 18 36H23.3333C24.0697 36 24.6667 36.597 24.6667 37.3334ZM23.3333 30.6667H18C17.2636 30.6667 16.6667 30.0697 16.6667 29.3334C16.6667 28.597 17.2636 28 18 28H23.3333C24.0697 28 24.6667 28.597 24.6667 29.3334C24.6667 30.0697 24.0697 30.6667 23.3333 30.6667Z" fill="#403E55"/>
<path d="M1.79134 35.8407C1.23934 36.6579 1.1834 37.713 1.6459 38.584C2.10841 39.455 3.01384 39.9996 4.00001 40H9.33334C10.6335 40.0031 11.7454 39.0657 11.9623 37.7837C12.1792 36.5018 11.4375 35.2508 10.2087 34.826C10.7607 34.0088 10.8166 32.9537 10.3541 32.0827C9.89161 31.2117 8.98618 30.6671 8.00001 30.6667H2.66668C1.36648 30.6637 0.254617 31.601 0.0377318 32.883C-0.179154 34.165 0.562501 35.4159 1.79134 35.8407ZM10.6667 37.3334C10.6667 38.0697 10.0697 38.6667 9.33334 38.6667H4.00001C3.26363 38.6667 2.66668 38.0697 2.66668 37.3334C2.66668 36.597 3.26363 36 4.00001 36H9.33334C10.0697 36 10.6667 36.597 10.6667 37.3334ZM2.66668 32H8.00001C8.73639 32 9.33334 32.597 9.33334 33.3334C9.33334 34.0697 8.73639 34.6667 8.00001 34.6667H2.66668C1.9303 34.6667 1.33334 34.0697 1.33334 33.3334C1.33334 32.597 1.9303 32 2.66668 32Z" fill="#403E55"/>
<path d="M8.60603 13.156C8.72183 12.8063 8.53215 12.4288 8.18237 12.313C7.83259 12.1972 7.45516 12.3869 7.33937 12.7367C6.2614 16.1609 5.61704 19.7068 5.42137 23.2914C5.40986 23.4679 5.46902 23.6418 5.58581 23.7748C5.7026 23.9077 5.86745 23.9887 6.04403 24H6.08736C6.43976 24.0007 6.73183 23.7271 6.75403 23.3754C6.94267 19.905 7.56484 16.4719 8.60603 13.156Z" fill="#403E55"/>
<path d="M5.99336 25.3334H5.98669C5.62109 25.3334 5.32368 25.6278 5.32003 25.9934C5.31336 26.6554 5.31336 27.338 5.33336 28.0194C5.34382 28.38 5.63926 28.6669 6.00003 28.6667H6.01936C6.1962 28.6617 6.36377 28.5865 6.48519 28.4579C6.6066 28.3292 6.67189 28.1575 6.66669 27.9807C6.64669 27.314 6.64669 26.652 6.65336 26.0067C6.65514 25.8299 6.5866 25.6596 6.46282 25.5333C6.33905 25.4071 6.17017 25.3351 5.99336 25.3334Z" fill="#403E55"/>
<path d="M9.46669 10.2314C10.5927 7.96604 11.8887 6.66671 13.02 6.66671C15.2307 6.66671 18.0574 11.6234 18.988 19.928C18.9704 20.1174 19.0339 20.3054 19.1627 20.4454C19.2923 20.5865 19.4751 20.6668 19.6667 20.6667C19.856 20.6667 20.0364 20.5862 20.1628 20.4452C20.2893 20.3043 20.3498 20.1163 20.3294 19.928C21.2627 11.624 24.09 6.66671 26.3007 6.66671C26.6689 6.66671 26.9674 6.36823 26.9674 6.00004C26.9674 5.63185 26.6689 5.33337 26.3007 5.33337C23.5207 5.33337 20.9867 9.42271 19.6594 15.6834C18.3334 9.42271 15.8 5.33337 13.02 5.33337C11.316 5.33337 9.67402 6.82071 8.27002 9.63604C8.16367 9.84921 8.17913 10.1029 8.31057 10.3016C8.442 10.5003 8.66945 10.6138 8.90723 10.5993C9.14502 10.5848 9.35701 10.4445 9.46335 10.2314H9.46669Z" fill="#403E55"/>
<path d="M39.604 5.39072L27.604 0.0573843C27.3469 -0.0566303 27.0459 0.00296062 26.8517 0.206335C26.6574 0.409709 26.6117 0.713117 26.7373 0.964718L29.2547 6.00005L26.7333 11.0354C26.6077 11.287 26.6534 11.5904 26.8477 11.7938C27.0419 11.9971 27.3429 12.0567 27.6 11.9427L39.6 6.60938C39.8409 6.50245 39.9962 6.26362 39.9962 6.00005C39.9962 5.73648 39.8409 5.49765 39.6 5.39072H39.604ZM28.7607 9.96939L30.6 6.29805C30.6938 6.11044 30.6938 5.88966 30.6 5.70205L28.7607 2.03072L37.692 6.00005L28.7607 9.96939Z" fill="#403E55"/>
</g>
</g>
<defs>
<clipPath id="clip0">
<rect width="40" height="40" fill="white"/>
</clipPath>
</defs>
</svg>
