<svg width="40" height="40" viewBox="0 0 40 40" fill="none" xmlns="http://www.w3.org/2000/svg">
<g opacity="0.6">
<path d="M28.3933 14.7207C28.6852 14.3996 28.853 13.985 28.8666 13.5513C28.8906 12.6373 28.3406 12.256 27.6 11.514C27.2489 11.1761 26.7753 10.9959 26.2884 11.015C25.8015 11.0341 25.3434 11.2509 25.02 11.6153L24.7633 10.8453C25.3633 10.2373 26.83 8.74532 28.0073 7.44132C30.9106 4.22999 30.758 1.87132 30.5573 1.00665C30.4472 0.554827 30.09 0.204807 29.636 0.103987C28.69 -0.107346 26.1653 -0.280679 23.2 2.68332L20.4 5.48332L19.3953 5.20665C19.8105 4.52115 19.7108 3.64178 19.1526 3.06665L18.3846 2.29932C17.676 1.61646 16.5485 1.63554 15.8633 2.34199L14.3693 3.83599L10.236 2.70799C8.6897 2.28789 7.03682 2.7268 5.90264 3.85865L5.69064 4.06999C5.41575 4.34455 5.28924 4.7343 5.35048 5.11797C5.41172 5.50163 5.65327 5.83264 5.99998 6.00799L10.474 8.24465C10.0313 9.19999 9.78398 10.178 10.528 10.9213C10.913 11.301 11.4583 11.4702 11.9906 11.3753C12.8814 11.193 13.7138 10.7946 14.4146 10.2153L15.262 10.6387C13.36 12.6487 12.484 13.9833 10.3366 16.988L8.00331 16.4047C7.59106 16.3039 7.15604 16.4245 6.85464 16.7233L6.30398 17.2733C5.83282 17.7465 5.83282 18.5115 6.30398 18.9847L11.68 24.3607C12.1531 24.8314 12.9176 24.8314 13.3906 24.3607L13.94 23.8106C14.2398 23.5096 14.3609 23.0739 14.2593 22.6613L13.676 20.328C16.5466 18.2773 17.9713 17.3473 20.0253 15.4033L20.4486 16.2507C20.2203 16.5256 20.0183 16.8213 19.8453 17.134C14.9127 20.7579 13.2795 27.3919 15.966 32.8916C18.6525 38.3912 24.8891 41.1809 30.7796 39.5179C36.67 37.8548 40.5269 32.2155 39.9406 26.1229C39.3543 20.0303 34.4928 15.2299 28.3933 14.7207ZM37.8806 31.454C36.8362 31.7853 35.8511 32.2803 34.962 32.9207C34.1406 33.472 32.8093 34.054 32.0873 33.4053C31.0513 32.472 33.0933 30.1526 33.0933 27.732C33.086 25.8566 31.7686 24.4907 29.476 23.984C28.863 23.8592 28.2945 23.5729 27.8293 23.1546C28.1161 22.3676 28.1782 21.5163 28.0086 20.696C29.1153 19.5433 30.928 19.4907 32.8126 17.4293C37.796 20.1574 39.9686 26.169 37.8806 31.4527V31.454ZM27.1233 16.0047C28.6352 15.9736 30.1376 16.251 31.5386 16.82C29.9873 18.3187 28.7686 18.37 27.578 19.2867L26.6446 16.482L27.1233 16.0047ZM25.5686 12.9527C26.0166 12.504 26.1073 12.3527 26.3686 12.3473C26.596 12.3327 26.624 12.4207 27.428 13.226C27.5885 13.4137 27.5698 13.6951 27.386 13.86L26.1746 15.0707L25.4873 13.0087C25.5157 12.992 25.5429 12.9732 25.5686 12.9527ZM16.806 3.28465C16.9718 3.10137 17.2531 3.0825 17.442 3.24199L18.2093 4.00999C18.3685 4.19857 18.35 4.47933 18.1673 4.64532L17.9893 4.82332L15.8506 4.23999L16.806 3.28465ZM11.86 10.044C11.7284 10.0921 11.5812 10.0667 11.4733 9.97732C11.3853 9.86908 11.36 9.72281 11.4066 9.59132C11.4717 9.33327 11.561 9.08194 11.6733 8.84065L13.0733 9.53999C12.6965 9.76794 12.2874 9.93785 11.86 10.044ZM19.7453 13.8187C17.482 16.0807 15.808 17.168 12.8346 19.292C12.4296 19.58 12.244 20.088 12.368 20.5693L12.9546 22.916L12.5406 23.33L7.34064 18.13L7.75464 17.7167L10.1013 18.304C10.5836 18.4254 11.0909 18.2382 11.3786 17.8327C13.4886 14.8793 14.5993 13.176 16.8526 10.9227C17.0037 10.7711 17.0729 10.5562 17.0386 10.345C17.0042 10.1338 16.8706 9.95189 16.6793 9.85599L6.75198 4.89199C7.54801 4.03302 8.75514 3.68706 9.88531 3.99399L20.24 6.81932C20.5858 6.91206 20.9548 6.81377 21.2086 6.56132L24.142 3.62799C26.5626 1.20799 28.49 1.23799 29.2753 1.39265C29.368 1.91732 29.4753 3.82865 27.018 6.54865C25.7473 7.95532 24.1346 9.58799 23.6713 10.054C23.4042 10.3209 23.3119 10.7164 23.4333 11.074L26.6726 20.7867C26.98 21.9167 26.6343 23.124 25.7753 23.92L20.8133 13.9913C20.7174 13.7996 20.5351 13.6657 20.3235 13.6315C20.1119 13.5973 19.8968 13.6669 19.7453 13.8187ZM21.1253 17.598L21.8246 18.998C21.561 19.1238 21.2829 19.2167 20.9966 19.2747C20.8871 19.3059 20.7692 19.2753 20.6886 19.1947C20.608 19.1141 20.5774 18.9962 20.6086 18.8867C20.7079 18.4319 20.8825 17.997 21.1253 17.6V17.598ZM16.362 24.5333C16.8123 25.3516 17.524 25.9953 18.3833 26.3613C19.85 26.9686 21.766 26.7473 21.664 27.9646C21.5701 28.6504 21.3779 29.319 21.0933 29.95C20.2933 31.9953 20.3426 32.5553 20.5826 33.95C20.7889 34.7536 20.7772 35.5977 20.5486 36.3953C16.8645 33.6652 15.2078 28.9711 16.362 24.5333ZM25.6726 38.542C27.1393 37.5613 28.7133 37.062 31.4726 37.2633C31.827 37.2916 32.1797 37.3379 32.5293 37.402C30.4206 38.4937 28.0212 38.8926 25.6726 38.542ZM34.1153 36.4126C32.0206 35.7972 29.8047 35.7193 27.672 36.186C26.3071 36.5466 25.045 37.2205 23.986 38.154C23.1991 37.9088 22.4415 37.5782 21.7266 37.168C22.1068 36.0603 22.1657 34.8677 21.8966 33.728C21.6966 32.5673 21.6353 32.224 22.3346 30.4387C22.6691 29.6889 22.8908 28.8939 22.9926 28.0793C23.0925 27.1363 22.5492 26.2431 21.666 25.898C20.6733 25.4633 19.708 25.4693 18.8926 25.132C17.9089 24.6371 17.2194 23.7037 17.0353 22.618C17.5055 21.5816 18.1314 20.6232 18.8913 19.776C19.0246 19.624 19.1773 19.49 19.32 19.3467C19.3852 19.6444 19.5325 19.9178 19.7453 20.136C20.4953 20.8867 21.4786 20.6287 22.422 20.1907L24.6586 24.6667C24.833 25.0142 25.1635 25.2569 25.5472 25.3192C25.931 25.3815 26.3213 25.2558 26.5966 24.9813C26.8017 24.7885 26.992 24.5806 27.166 24.3593C27.7649 24.812 28.4554 25.1285 29.1893 25.2866C30.3586 25.5447 31.754 26.1807 31.76 27.7353C31.76 29.456 30.5026 30.9593 30.4666 32.6273C30.432 34.2426 31.794 35.2026 33.352 34.996C34.952 34.7893 35.85 33.818 37.0186 33.2206C36.2653 34.4615 35.2794 35.5454 34.1153 36.4126Z" fill="#403E55"/>
<path d="M8.94065 37.392C4.93332 35.588 2.53332 32.872 1.81132 29.3193C0.752652 24.1133 3.63599 18.1053 6.76265 14.726C7.00633 14.455 6.98714 14.0384 6.71958 13.7909C6.45202 13.5434 6.03528 13.5567 5.78399 13.8207C2.32198 17.5627 -0.653348 23.888 0.504652 29.5853C1.31732 33.5813 3.97132 36.6173 8.39265 38.608C8.72844 38.7593 9.12333 38.6098 9.27465 38.274C9.42598 37.9382 9.27644 37.5433 8.94065 37.392Z" fill="#403E55"/>
<path d="M7.80463 23.8047C8.05728 23.5431 8.05367 23.1273 7.79651 22.8701C7.53936 22.613 7.12355 22.6094 6.86197 22.862C3.83663 25.886 4.0213 32.3713 10.2966 36.5547C10.603 36.759 11.017 36.6763 11.2213 36.37C11.4256 36.0637 11.343 35.6497 11.0366 35.4453C5.52863 31.7733 5.3433 26.2667 7.80463 23.8047Z" fill="#403E55"/>
<path d="M11.1613 29.7507C10.984 28.8276 11.219 27.8732 11.8046 27.138C12.0649 26.8777 12.0649 26.4557 11.8046 26.1953C10.5273 24.918 7.79198 30.0687 12.1953 34.4713C12.4569 34.724 12.8727 34.7204 13.1299 34.4632C13.387 34.2061 13.3906 33.7902 13.138 33.5287C12.0813 32.5211 11.3866 31.1932 11.1613 29.7507Z" fill="#403E55"/>
<path d="M7.99998 13.3333C8.36817 13.3333 8.66665 13.0349 8.66665 12.6667C8.66665 12.2985 8.36817 12 7.99998 12C7.63179 12 7.33331 12.2985 7.33331 12.6667C7.33331 13.0349 7.63179 13.3333 7.99998 13.3333Z" fill="#403E55"/>
</g>
</svg>
