<svg width="178" height="34" viewBox="0 0 178 34" fill="none" xmlns="http://www.w3.org/2000/svg">
<path d="M48.7429 25.4252C48.5776 25.4252 48.4371 25.3671 48.3214 25.2508C48.2057 25.1344 48.1478 24.9932 48.1478 24.827V11.0924H43.5606C43.3953 11.0924 43.2548 11.0342 43.1391 10.9179C43.0234 10.8016 42.9655 10.652 42.9655 10.4692V8.59973C42.9655 8.41693 43.0151 8.26737 43.1143 8.15105C43.23 8.03472 43.3788 7.97656 43.5606 7.97656H56.2312C56.413 7.97656 56.5618 8.03472 56.6775 8.15105C56.7932 8.26737 56.8511 8.41693 56.8511 8.59973V10.4692C56.8511 10.652 56.7932 10.8016 56.6775 10.9179C56.5618 11.0342 56.413 11.0924 56.2312 11.0924H51.6688V24.827C51.6688 24.9932 51.6109 25.1344 51.4952 25.2508C51.396 25.3671 51.2555 25.4252 51.0737 25.4252H48.7429Z" fill="white"/>
<path d="M58.0174 25.4252C57.8521 25.4252 57.7116 25.3671 57.5959 25.2508C57.4802 25.1344 57.4223 24.9932 57.4223 24.827V13.0865C57.4223 12.9037 57.4802 12.7542 57.5959 12.6379C57.7116 12.5215 57.8521 12.4634 58.0174 12.4634H60.0507C60.2325 12.4634 60.3813 12.5215 60.497 12.6379C60.6127 12.7542 60.6706 12.9037 60.6706 13.0865V14.1085C61.4971 13.0118 62.6873 12.4634 64.2411 12.4634H65.2826C65.4644 12.4634 65.6049 12.5215 65.7041 12.6379C65.8198 12.7376 65.8776 12.8788 65.8776 13.0616V14.8813C65.8776 15.0474 65.8198 15.1887 65.7041 15.305C65.6049 15.4213 65.4644 15.4795 65.2826 15.4795H63.3237C62.5468 15.4795 61.9351 15.7038 61.4888 16.1525C61.0425 16.6012 60.8193 17.2161 60.8193 17.9971V24.827C60.8193 24.9932 60.7615 25.1344 60.6458 25.2508C60.5301 25.3671 60.3895 25.4252 60.2242 25.4252H58.0174Z" fill="white"/>
<path d="M71.3608 25.6745C70.5177 25.6745 69.7408 25.5083 69.03 25.176C68.3357 24.827 67.7819 24.3617 67.3687 23.7801C66.9719 23.1985 66.7736 22.5587 66.7736 21.8607C66.7736 20.7307 67.2282 19.8167 68.1373 19.1188C69.0465 18.4208 70.2946 17.9472 71.8815 17.698L75.2785 17.1994V16.676C75.2785 15.9614 75.0967 15.4213 74.733 15.0557C74.3693 14.6901 73.7907 14.5074 72.9973 14.5074C72.4518 14.5074 72.0137 14.6071 71.6831 14.8065C71.3525 15.0059 71.0798 15.2136 70.8649 15.4296C70.6665 15.6291 70.5343 15.762 70.4681 15.8285C70.402 16.0279 70.278 16.1276 70.0962 16.1276H68.1621C68.0134 16.1276 67.8811 16.0777 67.7654 15.978C67.6662 15.8783 67.6166 15.7454 67.6166 15.5792C67.6332 15.1638 67.8315 14.6985 68.2117 14.1833C68.6085 13.6515 69.2118 13.1945 70.0218 12.8123C70.8318 12.4135 71.8319 12.2141 73.0221 12.2141C74.9727 12.2141 76.3943 12.6545 77.2869 13.5352C78.1796 14.416 78.6259 15.5709 78.6259 17V24.827C78.6259 24.9932 78.568 25.1344 78.4523 25.2508C78.3531 25.3671 78.2126 25.4252 78.0308 25.4252H75.9728C75.8075 25.4252 75.667 25.3671 75.5512 25.2508C75.4355 25.1344 75.3777 24.9932 75.3777 24.827V23.8549C75.014 24.3866 74.5016 24.827 73.8403 25.176C73.1791 25.5083 72.3526 25.6745 71.3608 25.6745ZM72.2038 23.2815C73.113 23.2815 73.8569 22.9824 74.4354 22.3842C75.014 21.7859 75.3033 20.9218 75.3033 19.7918V19.2933L72.8237 19.6921C70.9227 19.9912 69.9722 20.631 69.9722 21.6115C69.9722 22.1432 70.1871 22.5587 70.6169 22.8578C71.0632 23.1403 71.5922 23.2815 72.2038 23.2815Z" fill="white"/>
<path d="M86.0539 25.4252C85.806 25.4252 85.6159 25.3754 85.4836 25.2757C85.3514 25.1594 85.2439 25.0015 85.1613 24.8021L80.4997 13.2361C80.4832 13.1862 80.4749 13.1115 80.4749 13.0118C80.4749 12.8622 80.5245 12.7376 80.6237 12.6379C80.7394 12.5215 80.8634 12.4634 80.9956 12.4634H83.0537C83.3843 12.4634 83.6074 12.6212 83.7231 12.937L86.9962 21.6364L90.2692 12.937C90.3022 12.8206 90.3684 12.7126 90.4676 12.6129C90.5833 12.5132 90.732 12.4634 90.9139 12.4634H92.9719C93.1207 12.4634 93.2447 12.5215 93.3438 12.6379C93.443 12.7376 93.4926 12.8622 93.4926 13.0118C93.4926 13.1115 93.4844 13.1862 93.4678 13.2361L88.831 24.8021C88.6492 25.2175 88.3517 25.4252 87.9384 25.4252H86.0539Z" fill="white"/>
<path d="M100.873 25.6745C99.0214 25.6745 97.5502 25.1427 96.4592 24.0792C95.3847 23.0157 94.8144 21.5034 94.7483 19.5425L94.7235 18.9194C94.7235 16.8422 95.2607 15.2053 96.3352 14.0088C97.4262 12.8123 98.9305 12.2141 100.848 12.2141C102.815 12.2141 104.328 12.8123 105.386 14.0088C106.46 15.2053 106.997 16.8006 106.997 18.7947V19.3182C106.997 19.4844 106.939 19.6256 106.824 19.742C106.708 19.8583 106.559 19.9164 106.377 19.9164H98.1453V20.1159C98.1783 21.0465 98.4263 21.8192 98.8892 22.434C99.3685 23.0323 100.021 23.3314 100.848 23.3314C101.79 23.3314 102.559 22.9492 103.154 22.1848C103.303 22.002 103.418 21.894 103.501 21.8607C103.584 21.8109 103.724 21.7859 103.923 21.7859H106.105C106.253 21.7859 106.377 21.8275 106.477 21.9106C106.592 21.9937 106.65 22.11 106.65 22.2596C106.65 22.6584 106.41 23.132 105.931 23.6804C105.468 24.2121 104.799 24.6774 103.923 25.0763C103.047 25.4751 102.03 25.6745 100.873 25.6745ZM103.576 17.7977V17.7478C103.576 16.7674 103.328 15.9863 102.832 15.4047C102.352 14.8065 101.691 14.5074 100.848 14.5074C100.005 14.5074 99.3437 14.8065 98.8644 15.4047C98.385 15.9863 98.1453 16.7674 98.1453 17.7478V17.7977H103.576Z" fill="white"/>
<path d="M110.249 25.4252C110.083 25.4252 109.943 25.3671 109.827 25.2508C109.711 25.1344 109.654 24.9932 109.654 24.827V8.32553C109.654 8.14274 109.711 8.00149 109.827 7.90178C109.943 7.78546 110.083 7.72729 110.249 7.72729H112.331C112.513 7.72729 112.654 7.78546 112.753 7.90178C112.869 8.00149 112.927 8.14274 112.927 8.32553V24.827C112.927 24.9932 112.869 25.1344 112.753 25.2508C112.654 25.3671 112.513 25.4252 112.331 25.4252H110.249Z" fill="white"/>
<path d="M122.75 25.4252C122.584 25.4252 122.444 25.3671 122.328 25.2508C122.212 25.1344 122.155 24.9932 122.155 24.827V8.5748C122.155 8.39201 122.212 8.25076 122.328 8.15105C122.444 8.03472 122.584 7.97656 122.75 7.97656H125.081C125.262 7.97656 125.403 8.03472 125.502 8.15105C125.618 8.25076 125.676 8.39201 125.676 8.5748V22.434H133.536C133.718 22.434 133.866 22.4922 133.982 22.6085C134.098 22.7248 134.156 22.8661 134.156 23.0323V24.827C134.156 24.9932 134.098 25.1344 133.982 25.2508C133.866 25.3671 133.718 25.4252 133.536 25.4252H122.75Z" fill="white"/>
<path d="M141.799 25.6745C139.848 25.6745 138.344 25.176 137.286 24.1789C136.228 23.1818 135.658 21.8026 135.575 20.0411L135.55 18.9443L135.575 17.8475C135.658 16.1027 136.236 14.7317 137.311 13.7346C138.385 12.7209 139.881 12.2141 141.799 12.2141C143.7 12.2141 145.188 12.7209 146.262 13.7346C147.336 14.7317 147.915 16.1027 147.998 17.8475C148.014 18.0469 148.022 18.4125 148.022 18.9443C148.022 19.4761 148.014 19.8417 147.998 20.0411C147.915 21.8026 147.345 23.1818 146.287 24.1789C145.229 25.176 143.733 25.6745 141.799 25.6745ZM141.799 23.1569C142.675 23.1569 143.344 22.8827 143.807 22.3343C144.287 21.7859 144.543 20.98 144.576 19.9164C144.592 19.7503 144.601 19.4262 144.601 18.9443C144.601 18.4624 144.592 18.1383 144.576 17.9722C144.543 16.9086 144.287 16.1027 143.807 15.5543C143.328 14.9893 142.658 14.7068 141.799 14.7068C140.923 14.7068 140.245 14.9893 139.766 15.5543C139.286 16.1027 139.03 16.9086 138.997 17.9722L138.972 18.9443L138.997 19.9164C139.03 20.98 139.286 21.7859 139.766 22.3343C140.245 22.8827 140.923 23.1569 141.799 23.1569Z" fill="white"/>
<path d="M156.596 30.9091C155.125 30.9091 153.935 30.6598 153.026 30.1613C152.116 29.6794 151.472 29.1227 151.092 28.4912C150.711 27.8597 150.521 27.3197 150.521 26.871C150.521 26.7048 150.579 26.5636 150.695 26.4472C150.81 26.3475 150.951 26.2977 151.116 26.2977H153.323C153.472 26.2977 153.596 26.3309 153.695 26.3974C153.811 26.4805 153.902 26.6217 153.968 26.8211C154.15 27.2532 154.422 27.6188 154.786 27.9179C155.15 28.2336 155.712 28.3915 156.472 28.3915C157.464 28.3915 158.191 28.1672 158.654 27.7185C159.117 27.2864 159.348 26.522 159.348 25.4252V23.7302C158.456 24.7938 157.191 25.3255 155.555 25.3255C153.836 25.3255 152.538 24.8021 151.662 23.7552C150.802 22.7082 150.339 21.2791 150.273 19.4678L150.248 18.7947L150.273 18.1217C150.339 16.3436 150.81 14.9145 151.687 13.8343C152.563 12.7542 153.852 12.2141 155.555 12.2141C156.431 12.2141 157.2 12.3803 157.861 12.7126C158.522 13.045 159.067 13.4937 159.497 14.0587V13.0865C159.497 12.9037 159.555 12.7542 159.671 12.6379C159.803 12.5215 159.952 12.4634 160.117 12.4634H162.15C162.316 12.4634 162.456 12.5215 162.572 12.6379C162.688 12.7542 162.745 12.9037 162.745 13.0865L162.77 25.1012C162.77 26.9458 162.258 28.3749 161.233 29.3886C160.208 30.4023 158.662 30.9091 156.596 30.9091ZM156.497 22.6833C157.423 22.6833 158.117 22.3842 158.58 21.7859C159.043 21.1877 159.299 20.4565 159.348 19.5924C159.365 19.4595 159.373 19.1936 159.373 18.7947C159.373 18.3959 159.365 18.13 159.348 17.9971C159.299 17.133 159.043 16.4018 158.58 15.8035C158.117 15.2053 157.423 14.9062 156.497 14.9062C154.712 14.9062 153.769 16.003 153.67 18.1965L153.645 18.7947C153.645 21.3871 154.596 22.6833 156.497 22.6833Z" fill="white"/>
<path d="M171.776 25.6745C169.826 25.6745 168.321 25.176 167.263 24.1789C166.206 23.1818 165.635 21.8026 165.553 20.0411L165.528 18.9443L165.553 17.8475C165.635 16.1027 166.214 14.7317 167.288 13.7346C168.363 12.7209 169.859 12.2141 171.776 12.2141C173.677 12.2141 175.165 12.7209 176.24 13.7346C177.314 14.7317 177.893 16.1027 177.975 17.8475C177.992 18.0469 178 18.4125 178 18.9443C178 19.4761 177.992 19.8417 177.975 20.0411C177.893 21.8026 177.322 23.1818 176.264 24.1789C175.206 25.176 173.71 25.6745 171.776 25.6745ZM171.776 23.1569C172.652 23.1569 173.322 22.8827 173.785 22.3343C174.264 21.7859 174.52 20.98 174.553 19.9164C174.57 19.7503 174.578 19.4262 174.578 18.9443C174.578 18.4624 174.57 18.1383 174.553 17.9722C174.52 16.9086 174.264 16.1027 173.785 15.5543C173.305 14.9893 172.636 14.7068 171.776 14.7068C170.9 14.7068 170.222 14.9893 169.743 15.5543C169.264 16.1027 169.007 16.9086 168.974 17.9722L168.95 18.9443L168.974 19.9164C169.007 20.98 169.264 21.7859 169.743 22.3343C170.222 22.8827 170.9 23.1569 171.776 23.1569Z" fill="white"/>
<rect width="5.98911" height="23.9564" transform="matrix(0.704583 0.709621 -0.704583 0.709621 23.2092 6.375)" fill="#FC5954"/>
<rect width="5.98911" height="23.9564" transform="matrix(0.704583 0.709621 -0.704583 0.709621 29.5388 12.75)" fill="#FC5954"/>
<rect width="5.98911" height="23.9564" transform="matrix(0.704583 0.709621 -0.704583 0.709621 16.8793 0)" fill="#FC5954"/>
</svg>
